<?xml version="1.0" standalone="no"?>
<!DOCTYPE svg PUBLIC "-//W3C//DTD SVG 20010904//EN"
 "http://www.w3.org/TR/2001/REC-SVG-20010904/DTD/svg10.dtd">
<svg version="1.0" xmlns="http://www.w3.org/2000/svg"
 width="532.000000pt" height="532.000000pt" viewBox="0 0 532.000000 532.000000"
 preserveAspectRatio="xMidYMid meet">
<metadata>
Created by potrace 1.14, written by Peter Selinger 2001-2017
</metadata>
<g transform="translate(0.000000,532.000000) scale(0.100000,-0.100000)"
fill="#000000" stroke="none">
<path d="M1725 4067 c-8 -4 -19 -5 -25 -2 -11 7 -50 -66 -50 -93 0 -10 -3 -22
-7 -26 -8 -8 -10 -13 -12 -45 0 -11 -17 -37 -36 -58 -19 -21 -35 -42 -36 -48
0 -5 -2 -20 -3 -32 -2 -13 1 -23 5 -23 4 0 6 -7 5 -15 -3 -20 -73 -78 -85 -71
-5 3 -7 -4 -3 -16 4 -17 2 -20 -12 -15 -11 5 -15 3 -10 -5 7 -12 -35 -98 -48
-98 -5 0 -8 -4 -8 -9 0 -5 -5 -22 -12 -38 -6 -15 -12 -32 -13 -38 0 -5 -6 -9
-13 -8 -6 2 -9 -4 -6 -12 4 -8 1 -15 -6 -15 -6 0 -9 -4 -5 -9 3 -5 -3 -12 -13
-15 -10 -4 -23 -16 -29 -29 -28 -64 -58 -123 -66 -128 -5 -3 -7 -8 -6 -10 4
-5 -25 -41 -64 -82 -17 -19 -33 -27 -44 -23 -13 5 -14 4 -4 -8 7 -9 8 -17 2
-20 -5 -3 -12 0 -15 6 -3 7 -3 3 0 -10 3 -14 0 -24 -10 -28 -8 -3 -19 -19 -25
-35 -5 -16 -15 -29 -21 -29 -6 0 -9 -4 -5 -9 3 -5 1 -12 -4 -16 -6 -3 -7 -13
-4 -22 5 -12 3 -14 -7 -8 -10 6 -12 4 -7 -9 4 -10 2 -16 -6 -15 -6 1 -21 -2
-32 -6 -30 -12 -94 -72 -87 -81 4 -4 -1 -4 -10 -1 -12 4 -15 2 -12 -8 3 -7 -3
-18 -13 -23 -10 -6 -44 -35 -76 -65 -52 -50 -89 -70 -138 -71 -23 -1 -85 -59
-88 -82 -2 -23 -2 -58 2 -104 2 -29 -1 -35 -17 -33 -12 1 -15 -2 -8 -9 7 -7 2
-23 -16 -52 -15 -22 -30 -43 -35 -44 -4 -2 -4 -8 -1 -13 7 -13 -15 -41 -27
-33 -5 3 -9 0 -9 -6 0 -6 -4 -9 -9 -6 -12 8 -67 -47 -85 -86 -8 -18 -20 -52
-26 -75 -6 -24 -14 -43 -18 -43 -22 0 -50 -118 -34 -146 8 -14 4 -24 -19 -47
-16 -16 -29 -38 -29 -49 0 -12 -7 -29 -15 -38 -19 -21 -29 -86 -15 -95 6 -3 8
-11 4 -16 -3 -5 -10 -6 -16 -3 -7 4 -8 2 -4 -5 4 -6 3 -18 -4 -25 -16 -20 -17
-129 -2 -134 10 -3 10 -7 1 -18 -9 -11 -8 -14 2 -14 10 -1 9 -5 -4 -14 -17
-13 -17 -17 4 -80 14 -43 27 -65 35 -62 6 2 20 -2 31 -9 10 -8 26 -15 35 -15
12 0 16 -6 13 -21 -3 -12 -1 -18 3 -15 7 7 8 11 11 37 0 5 6 7 11 4 6 -4 7
-12 3 -18 -4 -8 -1 -7 9 1 9 7 29 15 44 18 16 3 33 9 39 13 15 12 56 20 49 10
-3 -5 2 -9 10 -9 8 0 18 5 21 10 5 8 11 8 20 0 10 -8 14 -7 17 2 4 10 9 10 23
-2 11 -9 16 -10 11 -2 -5 8 1 12 21 12 16 0 34 5 39 10 7 7 19 7 35 1 16 -6
31 -5 42 1 9 5 21 7 26 4 5 -4 7 4 3 16 -3 14 -2 19 7 14 15 -10 51 2 51 17 0
8 -3 8 -12 -1 -15 -15 -31 -16 -26 0 5 15 39 19 55 6 7 -5 19 -8 27 -5 7 3 24
-2 37 -10 13 -9 21 -13 17 -8 -11 11 34 34 47 24 6 -4 17 -3 25 3 12 8 12 9
-2 4 -22 -7 -23 4 -2 30 13 15 15 16 10 2 -3 -12 -1 -15 9 -11 8 3 13 8 11 12
-5 8 61 7 70 -1 3 -4 17 -3 31 3 16 6 32 5 46 -2 20 -9 21 -9 4 4 -12 10 -15
17 -7 22 6 4 18 -1 26 -11 9 -11 13 -14 9 -7 -8 16 36 27 74 20 15 -3 33 -1
40 6 6 6 11 7 11 3 0 -5 7 -2 17 5 13 11 17 11 20 2 3 -7 9 -13 14 -13 4 0 5
8 2 17 -6 16 -5 17 12 3 11 -9 16 -10 11 -2 -4 7 -2 13 6 13 39 4 74 4 82 0
17 -8 55 -7 49 2 -3 5 -14 7 -24 4 -11 -3 -19 -1 -19 4 0 9 16 13 35 9 29 -6
65 -5 65 2 0 4 5 8 11 8 5 0 7 -6 4 -12 -4 -7 0 -5 8 4 18 22 27 23 27 1 0
-12 7 -8 25 13 17 19 23 23 19 10 -5 -13 -4 -17 4 -12 6 3 15 -2 21 -11 6 -10
11 -13 11 -6 0 6 -5 15 -11 18 -16 11 -5 28 22 32 18 2 20 1 9 -6 -8 -5 -18
-7 -22 -5 -15 9 -8 -3 9 -17 9 -8 14 -9 10 -3 -8 13 11 23 31 17 6 -3 9 -10 5
-16 -4 -7 1 -6 10 2 9 7 17 19 16 25 0 7 -2 7 -5 -1 -3 -7 -12 -9 -20 -6 -23
8 -16 18 14 20 48 2 95 12 101 20 9 13 31 10 42 -7 8 -12 9 -10 4 7 -5 18 -3
21 14 18 12 -2 21 1 21 7 0 6 3 8 7 5 3 -4 13 -1 21 6 13 10 14 9 8 -1 -4 -7
-1 -15 8 -18 9 -3 14 -10 11 -14 -3 -5 0 -12 6 -16 8 -4 9 -3 5 4 -4 7 -2 12
5 12 7 0 4 7 -7 16 -15 12 -15 14 -2 11 9 -3 19 -3 22 0 14 14 56 11 67 -5 9
-15 10 -15 5 0 -9 31 6 27 44 -12 21 -21 40 -37 43 -34 3 3 14 -6 25 -20 11
-15 25 -26 31 -26 12 0 15 -16 4 -23 -5 -2 -2 -2 5 0 15 3 44 -21 37 -31 -3
-3 0 -2 7 4 17 14 54 -32 49 -62 0 -5 8 -8 20 -8 13 0 18 -4 13 -13 -6 -9 -5
-9 7 0 12 10 21 6 48 -19 17 -16 29 -33 26 -36 -3 -4 -10 -1 -14 7 -7 10 -9
10 -14 -2 -4 -10 1 -14 16 -12 12 1 22 3 22 5 0 1 10 3 22 4 18 2 20 0 11 -11
-9 -11 -13 -11 -19 -1 -5 8 -8 5 -6 -9 1 -20 3 -21 17 -8 9 8 24 15 32 15 9 0
22 8 29 18 11 14 11 15 -1 5 -8 -7 -19 -13 -24 -13 -6 0 -2 6 9 14 11 7 47 15
79 18 33 3 62 10 64 16 2 6 10 8 19 5 12 -5 14 -3 8 8 -7 11 -5 11 10 -1 10
-8 16 -10 12 -4 -11 19 22 25 33 6 8 -12 10 -12 7 -2 -2 8 1 20 7 27 29 33 34
41 28 47 -3 4 0 5 8 1 10 -3 15 2 16 17 1 13 4 34 7 47 4 13 0 36 -9 52 -10
20 -12 35 -5 47 7 14 6 18 -9 18 -14 0 -16 -3 -8 -13 7 -9 7 -13 0 -13 -12 0
-24 29 -17 40 3 5 11 8 18 6 7 -1 9 -1 4 1 -4 3 -4 10 -1 16 5 8 2 8 -7 0 -21
-20 -34 -15 -15 6 13 14 14 21 5 27 -8 4 -10 3 -5 -4 4 -7 2 -12 -4 -12 -7 0
-9 7 -6 16 3 9 6 17 6 20 0 2 7 1 15 -2 8 -4 15 -2 15 3 0 5 7 10 15 10 13 0
13 -2 0 -17 -17 -19 -19 -30 -5 -30 6 0 9 6 8 13 -2 6 5 11 14 11 10 -1 15 3
12 8 -3 5 -3 21 0 34 l7 26 22 -28 c12 -16 21 -33 19 -39 -2 -5 6 -1 17 9 12
11 21 15 21 11 0 -5 6 -1 13 9 7 9 17 17 22 16 6 -2 17 -2 25 -1 13 1 13 2 0
11 -13 9 -13 11 0 19 8 5 17 8 20 6 3 -2 6 8 7 21 4 44 6 53 13 49 4 -3 16 5
26 17 11 12 13 18 5 13 -10 -5 -12 -4 -7 3 12 20 26 13 26 -14 0 -17 -4 -23
-12 -18 -10 6 -10 4 0 -7 6 -7 12 -23 12 -35 0 -22 35 -40 46 -23 3 5 10 7 15
4 18 -11 49 -14 54 -4 4 5 14 5 26 -1 10 -6 19 -7 19 -2 0 4 18 8 40 8 42 -1
47 -5 30 -22 -7 -7 -6 -11 5 -11 8 0 13 3 10 5 -3 3 3 11 12 17 14 11 20 10
31 -4 13 -15 13 -15 8 2 -5 15 13 23 45 19 4 -1 3 15 -1 34 -7 29 -5 39 11 55
17 17 34 17 64 0 17 -10 35 -10 29 0 -3 5 -10 7 -15 4 -5 -4 -9 -2 -9 3 0 17
13 22 28 9 10 -8 13 -8 9 -1 -4 7 -1 14 6 16 21 8 37 -3 37 -25 0 -18 2 -19
10 -7 9 13 10 13 10 0 0 -13 1 -13 10 0 6 10 10 11 10 3 0 -9 11 -7 34 6 38
22 46 19 46 -16 0 -17 5 -22 20 -20 11 2 23 7 27 12 5 4 2 5 -4 1 -7 -4 -13
-3 -13 2 0 11 41 24 49 16 3 -3 -1 -9 -9 -14 -11 -7 -11 -10 -2 -10 7 0 16 11
21 23 5 13 16 24 25 25 9 1 23 3 31 4 8 1 15 6 15 11 0 5 6 5 13 -2 10 -8 17
-7 27 2 10 10 12 9 7 -5 -7 -19 19 -33 29 -16 4 7 3 8 -4 4 -7 -4 -12 -3 -12
3 0 5 5 13 11 17 16 10 30 -18 17 -33 -19 -23 -4 -20 22 4 16 16 18 22 7 17
-9 -3 -17 -2 -17 4 0 5 16 8 35 6 21 -2 33 1 30 6 -6 9 18 4 40 -9 20 -11 52
-8 52 5 0 10 -4 11 -12 4 -9 -7 -14 -7 -17 2 -8 21 2 38 23 38 11 0 17 5 14
10 -8 13 1 13 26 -1 11 -5 17 -13 15 -17 -6 -11 130 -9 140 1 5 4 0 5 -11 1
-18 -7 -19 -6 -5 12 28 37 42 45 59 31 9 -7 12 -8 8 -1 -4 7 3 11 18 11 20 1
23 -2 15 -12 -8 -10 -8 -15 1 -21 7 -4 9 -3 5 4 -15 24 39 36 66 13 15 -12 18
-12 24 3 5 12 15 16 38 12 30 -5 30 -4 11 11 -19 15 -19 15 12 10 19 -4 35 -2
39 5 5 7 11 5 21 -7 7 -11 13 -14 13 -9 0 6 -5 15 -11 21 -8 8 -8 13 0 17 6 4
11 2 11 -4 0 -6 4 -8 10 -5 5 3 7 0 4 -8 -7 -19 111 -20 127 -1 6 8 18 14 25
14 8 0 14 4 14 8 0 12 42 12 57 0 7 -5 10 -15 6 -22 -3 -6 2 -4 13 5 10 8 38
24 62 34 23 10 42 21 42 25 0 4 15 6 33 4 22 -3 28 -1 18 5 -12 8 -13 12 -1
26 7 9 19 14 27 11 9 -4 13 4 13 24 0 32 8 37 29 18 11 -11 12 -10 5 2 -12 21
-5 52 18 76 11 12 15 23 9 25 -6 2 -12 14 -14 26 -2 12 -11 31 -21 42 -10 11
-15 25 -10 32 4 7 3 10 -3 6 -6 -4 -21 7 -34 25 -36 47 -56 68 -63 68 -14 0
-55 44 -49 53 3 6 1 7 -5 3 -7 -4 -23 4 -36 17 -14 14 -27 22 -30 19 -3 -3 -6
0 -6 6 0 5 6 13 13 16 6 3 3 4 -8 1 -14 -3 -29 6 -50 31 -17 19 -40 46 -52 59
-13 13 -23 27 -23 30 0 4 -28 33 -62 65 -83 78 -97 90 -104 90 -4 0 -14 8 -23
18 -9 9 -45 37 -81 61 -36 24 -73 53 -82 63 -10 11 -18 17 -18 14 0 -4 -6 -1
-14 6 -8 7 -12 16 -10 20 5 8 -37 33 -49 30 -9 -2 -80 48 -85 61 -2 4 -9 7
-16 7 -7 0 -23 9 -36 20 -13 11 -27 20 -31 20 -4 0 -15 7 -23 16 -9 8 -45 32
-81 53 -35 21 -61 42 -57 46 4 5 2 5 -5 2 -19 -12 -45 4 -40 24 4 15 2 17 -13
9 -12 -6 -23 -5 -36 5 -11 8 -47 28 -82 45 -34 17 -60 35 -57 40 3 6 -1 7 -9
4 -16 -6 -106 34 -106 48 0 4 -7 8 -15 8 -8 0 -15 5 -15 11 0 5 -4 8 -9 4 -5
-3 -12 -1 -16 5 -4 6 -11 8 -16 5 -5 -4 -9 -2 -9 3 0 9 -22 19 -63 28 -10 2
-29 11 -43 20 -13 9 -27 14 -31 11 -3 -4 -15 -1 -27 5 -11 7 -29 13 -38 14
-10 1 -24 2 -32 3 -8 0 -21 7 -28 14 -7 6 -22 13 -32 15 -10 2 -25 10 -33 18
-8 8 -26 17 -39 20 -18 5 -23 11 -19 23 5 12 3 13 -6 4 -9 -9 -20 -6 -50 13
-22 14 -54 24 -74 24 -25 0 -34 4 -29 12 4 6 3 8 -4 4 -6 -3 -44 5 -84 19 -40
15 -84 28 -98 31 -61 11 -86 17 -95 22 -5 4 -21 8 -34 10 -13 2 -38 11 -55 20
-17 9 -35 15 -39 14 -4 -1 -21 5 -38 13 -16 9 -47 18 -67 21 -20 2 -40 11 -45
19 -6 12 -13 13 -28 5 -11 -6 -25 -8 -32 -3 -6 4 -28 8 -47 10 -134 9 -194 19
-327 57 -82 23 -262 38 -288 23z m2874 -1973 c-9 -8 -23 -12 -32 -8 -18 7 -23
24 -7 24 6 0 10 -5 10 -12 0 -8 6 -6 17 5 9 9 19 14 22 12 3 -3 -2 -12 -10
-21z m-509 -128 c0 -5 -7 -3 -15 4 -8 7 -12 17 -9 22 7 10 24 -9 24 -26z
m-1030 -30 c0 -11 -19 -15 -25 -6 -3 5 1 10 9 10 9 0 16 -2 16 -4z m-5 -37
c-3 -4 -12 -6 -20 -3 -8 4 -13 10 -10 15 3 4 12 6 20 3 8 -4 13 -10 10 -15z"/>
<path d="M3315 3680 c3 -5 8 -10 11 -10 2 0 4 5 4 10 0 6 -5 10 -11 10 -5 0
-7 -4 -4 -10z"/>
<path d="M3456 3638 c3 -5 10 -6 15 -3 13 9 11 12 -6 12 -8 0 -12 -4 -9 -9z"/>
<path d="M4776 2781 c-3 -5 2 -15 12 -22 15 -12 16 -12 5 2 -7 9 -10 19 -6 22
3 4 4 7 0 7 -3 0 -8 -4 -11 -9z"/>
<path d="M4874 2692 c3 -5 0 -13 -6 -15 -9 -4 -10 -6 -1 -6 17 -1 25 16 12 25
-7 4 -9 3 -5 -4z"/>
<path d="M4918 2613 c7 -3 16 -2 19 1 4 3 -2 6 -13 5 -11 0 -14 -3 -6 -6z"/>
<path d="M4950 2616 c0 -2 8 -10 18 -17 15 -13 16 -12 3 4 -13 16 -21 21 -21
13z"/>
<path d="M5130 2306 c0 -2 7 -7 16 -10 8 -3 12 -2 9 4 -6 10 -25 14 -25 6z"/>
<path d="M5080 2180 c-12 -7 -10 -9 7 -7 12 0 19 5 17 9 -6 10 -6 10 -24 -2z"/>
<path d="M4966 2122 c-3 -5 1 -9 9 -9 8 0 12 4 9 9 -3 4 -7 8 -9 8 -2 0 -6 -4
-9 -8z"/>
<path d="M4826 2102 c-2 -4 4 -8 14 -8 10 0 16 4 14 8 -3 4 -9 8 -14 8 -5 0
-11 -4 -14 -8z"/>
<path d="M4780 2086 c0 -2 7 -6 15 -10 8 -3 15 -1 15 4 0 6 -7 10 -15 10 -8 0
-15 -2 -15 -4z"/>
<path d="M4936 2078 c3 -4 11 -5 19 -1 21 7 19 12 -4 10 -11 0 -18 -5 -15 -9z"/>
<path d="M4596 2061 c-3 -5 2 -15 12 -22 15 -12 16 -12 5 2 -7 9 -10 19 -6 22
3 4 4 7 0 7 -3 0 -8 -4 -11 -9z"/>
<path d="M4735 2060 c-4 -6 -16 -8 -28 -5 -20 5 -20 5 -4 -5 13 -9 22 -9 32 0
10 9 16 7 24 -7 6 -10 11 -13 11 -7 0 18 -27 37 -35 24z"/>
<path d="M4651 2044 c0 -11 3 -14 6 -6 3 7 2 16 -1 19 -3 4 -6 -2 -5 -13z"/>
<path d="M4514 2042 c3 -5 0 -13 -6 -15 -9 -4 -10 -6 -1 -6 17 -1 25 16 12 25
-7 4 -9 3 -5 -4z"/>
<path d="M4790 2039 c0 -5 5 -7 10 -4 6 3 10 8 10 11 0 2 -4 4 -10 4 -5 0 -10
-5 -10 -11z"/>
<path d="M4320 2031 c0 -6 4 -13 10 -16 6 -3 7 1 4 9 -7 18 -14 21 -14 7z"/>
<path d="M4290 1959 c0 -5 5 -7 10 -4 6 3 10 8 10 11 0 2 -4 4 -10 4 -5 0 -10
-5 -10 -11z"/>
<path d="M4001 1938 c-12 -20 -12 -21 0 -12 8 6 22 10 32 9 9 -2 15 1 11 6 -3
5 -9 7 -14 4 -4 -3 -10 -1 -12 5 -2 6 -9 0 -17 -12z"/>
<path d="M4056 1947 c3 -10 9 -15 12 -12 3 3 0 11 -7 18 -10 9 -11 8 -5 -6z"/>
<path d="M3870 1940 c0 -5 3 -9 8 -8 15 3 42 -15 35 -25 -4 -6 -1 -7 7 -2 10
6 7 12 -11 26 -27 21 -39 24 -39 9z"/>
<path d="M3813 1917 c-2 -19 -1 -20 8 -5 5 9 16 15 24 12 8 -4 13 -10 10 -14
-3 -5 -1 -11 4 -14 5 -4 8 1 7 9 -3 19 -9 25 -33 29 -14 3 -19 -2 -20 -17z"/>
<path d="M3471 1913 c7 -12 15 -20 18 -17 3 2 -3 12 -13 22 -17 16 -18 16 -5
-5z"/>
<path d="M3685 1920 c-3 -5 -1 -10 4 -10 6 0 11 5 11 10 0 6 -2 10 -4 10 -3 0
-8 -4 -11 -10z"/>
<path d="M3444 1911 c4 -5 1 -11 -6 -13 -9 -3 -9 -6 0 -12 7 -4 12 -2 12 4 0
6 5 8 13 4 8 -5 8 -2 -2 9 -14 18 -26 23 -17 8z"/>
<path d="M3655 1909 c-4 -6 -5 -12 -2 -15 2 -3 7 2 10 11 7 17 1 20 -8 4z"/>
<path d="M255 1900 c-3 -5 -1 -10 4 -10 6 0 11 5 11 10 0 6 -2 10 -4 10 -3 0
-8 -4 -11 -10z"/>
<path d="M3760 1886 c0 -2 7 -7 16 -10 8 -3 12 -2 9 4 -6 10 -25 14 -25 6z"/>
<path d="M3470 1866 c0 -2 7 -7 16 -10 8 -3 12 -2 9 4 -6 10 -25 14 -25 6z"/>
<path d="M3035 1840 c-3 -5 -1 -10 4 -10 6 0 11 5 11 10 0 6 -2 10 -4 10 -3 0
-8 -4 -11 -10z"/>
<path d="M3440 1820 c-9 -6 -10 -10 -3 -10 6 0 15 5 18 10 8 12 4 12 -15 0z"/>
<path d="M3146 1807 c3 -10 9 -15 12 -12 3 3 0 11 -7 18 -10 9 -11 8 -5 -6z"/>
<path d="M3256 1805 c-9 -26 -7 -32 5 -12 6 10 9 21 6 23 -2 3 -7 -2 -11 -11z"/>
<path d="M3411 1804 c0 -11 3 -14 6 -6 3 7 2 16 -1 19 -3 4 -6 -2 -5 -13z"/>
<path d="M3086 1802 c-3 -5 1 -9 9 -9 8 0 12 4 9 9 -3 4 -7 8 -9 8 -2 0 -6 -4
-9 -8z"/>
<path d="M3173 1797 c-3 -5 -2 -11 1 -14 3 -4 6 -2 6 4 0 6 11 9 25 8 14 -2
25 0 25 5 0 10 -50 8 -57 -3z"/>
<path d="M3353 1795 c0 -8 4 -12 9 -9 5 3 6 10 3 15 -9 13 -12 11 -12 -6z"/>
<path d="M2860 1759 c0 -5 5 -7 10 -4 6 3 10 8 10 11 0 2 -4 4 -10 4 -5 0 -10
-5 -10 -11z"/>
<path d="M2916 1722 c-3 -5 1 -9 9 -9 8 0 12 4 9 9 -3 4 -7 8 -9 8 -2 0 -6 -4
-9 -8z"/>
<path d="M2055 1619 c-4 -6 -4 -13 -1 -16 3 -4 6 -1 6 6 0 7 5 9 12 5 7 -4 8
-3 4 4 -9 15 -13 15 -21 1z"/>
<path d="M2110 1605 c0 -8 4 -15 10 -15 5 0 7 7 4 15 -4 8 -8 15 -10 15 -2 0
-4 -7 -4 -15z"/>
<path d="M1948 1603 c7 -3 16 -2 19 1 4 3 -2 6 -13 5 -11 0 -14 -3 -6 -6z"/>
<path d="M1856 1574 c-8 -21 -8 -24 4 -24 6 0 9 6 8 13 -2 6 3 11 10 10 6 -2
12 2 12 7 0 16 -27 11 -34 -6z"/>
<path d="M1935 1580 c-3 -5 -1 -10 4 -10 6 0 11 5 11 10 0 6 -2 10 -4 10 -3 0
-8 -4 -11 -10z"/>
<path d="M2850 1580 c0 -5 5 -10 11 -10 5 0 7 5 4 10 -3 6 -8 10 -11 10 -2 0
-4 -4 -4 -10z"/>
<path d="M1786 1553 c-6 -14 -5 -15 5 -6 7 7 10 15 7 18 -3 3 -9 -2 -12 -12z"/>
<path d="M1810 1562 c0 -5 7 -9 15 -9 8 0 12 4 9 9 -3 4 -9 8 -15 8 -5 0 -9
-4 -9 -8z"/>
<path d="M2175 1551 c-3 -5 0 -13 6 -17 7 -4 9 -3 5 4 -3 5 0 13 6 15 9 4 10
6 1 6 -6 1 -14 -3 -18 -8z"/>
<path d="M1770 1526 c0 -2 7 -7 16 -10 8 -3 12 -2 9 4 -6 10 -25 14 -25 6z"/>
<path d="M1580 1500 c-9 -6 -10 -10 -3 -10 6 0 15 5 18 10 8 12 4 12 -15 0z"/>
<path d="M1613 1485 c0 -8 4 -12 9 -9 5 3 6 10 3 15 -9 13 -12 11 -12 -6z"/>
<path d="M1396 1474 c-5 -14 -4 -15 9 -4 17 14 19 20 6 20 -5 0 -12 -7 -15
-16z"/>
<path d="M1276 1453 c-6 -14 -5 -15 5 -6 7 7 10 15 7 18 -3 3 -9 -2 -12 -12z"/>
<path d="M2315 1430 c3 -5 8 -10 11 -10 2 0 4 5 4 10 0 6 -5 10 -11 10 -5 0
-7 -4 -4 -10z"/>
<path d="M1108 1423 c7 -3 16 -2 19 1 4 3 -2 6 -13 5 -11 0 -14 -3 -6 -6z"/>
<path d="M2800 1420 c-8 -5 -10 -10 -5 -10 6 0 17 5 25 10 8 5 11 10 5 10 -5
0 -17 -5 -25 -10z"/>
<path d="M2393 1379 c-2 -19 11 -26 21 -10 3 5 0 14 -7 19 -10 8 -13 6 -14 -9z"/>
<path d="M916 1382 c-2 -4 -1 -14 4 -22 7 -11 9 -9 7 8 -1 24 -3 26 -11 14z"/>
<path d="M2708 1373 c7 -3 16 -2 19 1 4 3 -2 6 -13 5 -11 0 -14 -3 -6 -6z"/>
<path d="M2660 1366 c0 -2 9 -6 20 -9 11 -3 18 -1 14 4 -5 9 -34 13 -34 5z"/>
<path d="M2578 1348 c5 -5 16 -8 23 -6 8 3 3 7 -10 11 -17 4 -21 3 -13 -5z"/>
<path d="M634 1325 c1 -8 6 -18 11 -22 4 -4 5 -3 2 4 -4 6 -2 13 5 15 8 3 6 6
-4 10 -10 4 -15 2 -14 -7z"/>
<path d="M2557 1333 c-10 -9 -9 -23 1 -23 5 0 9 7 9 15 0 17 -1 18 -10 8z"/>
<path d="M509 1297 c6 -8 7 -18 3 -22 -4 -5 -1 -5 6 -1 10 6 10 11 1 22 -6 8
-14 14 -16 14 -3 0 0 -6 6 -13z"/>
<path d="M431 1287 c2 -1 13 -9 24 -17 19 -14 19 -14 6 3 -7 9 -18 17 -24 17
-6 0 -8 -1 -6 -3z"/>
<path d="M355 1269 c-4 -6 -5 -12 -2 -15 2 -3 7 2 10 11 7 17 1 20 -8 4z"/>
</g>
</svg>
